<svg width="70" height="76" viewBox="0 0 70 76" fill="none" xmlns="http://www.w3.org/2000/svg">
<path d="M0 10C0 4.47715 4.47715 0 10 0H60C65.5229 0 70 4.47715 70 10V66C70 71.5229 65.5229 76 60 76H10C4.47715 76 0 71.5229 0 66V10Z" fill="#B6D7FF"/>
<g clip-path="url(#clip0_2685_1480)">
<g clip-path="url(#clip1_2685_1480)">
<g clip-path="url(#clip2_2685_1480)">
<path d="M25.6139 47.5456H47.4113C47.478 47.5456 47.5427 47.5361 47.6048 47.5213C47.6098 47.5213 47.6139 47.5221 47.6188 47.5221C48.0841 47.5221 48.4622 47.1445 48.4622 46.6788V22.8433C48.4622 22.3778 48.0841 22 47.6188 22H47.413H26.9626H25.615C23.3703 22 21.5445 23.8263 21.5445 26.0704C21.5445 26.1005 21.5504 26.129 21.5533 26.1581C21.5504 28.2311 21.5247 47.2792 21.5504 49.7833C21.5488 49.8322 21.5428 49.88 21.5428 49.9295C21.5428 52.0873 23.2324 53.8538 25.3576 53.9873C25.4003 53.9939 25.4421 54.0001 25.4863 54.0001H47.6188C48.0841 54.0001 48.4621 53.6225 48.4621 53.1567V49.9823C48.4621 49.5169 48.084 49.139 47.6188 49.139C47.1535 49.139 46.7754 49.517 46.7754 49.9823V52.3135H25.6139C24.3323 52.3135 23.2862 51.296 23.2348 50.0272C23.236 50.0045 23.2401 49.9831 23.2397 49.9601C23.2389 49.923 23.2376 49.8654 23.2368 49.7888C23.3105 48.54 24.3469 47.5456 25.6139 47.5456ZM26.1889 26.0704C26.1889 25.6049 26.5667 25.227 27.0322 25.227C27.4978 25.227 27.8756 25.6049 27.8756 26.0704V43.2008C27.8756 43.6661 27.4978 44.0441 27.0322 44.0441C26.5667 44.0441 26.1889 43.666 26.1889 43.2008V26.0704Z" fill="#E74040"/>
</g>
</g>
</g>
<defs>
<clipPath id="clip0_2685_1480">
<rect width="32" height="32" fill="white" transform="translate(19 22)"/>
</clipPath>
<clipPath id="clip1_2685_1480">
<rect width="32" height="32" fill="white" transform="translate(19 22)"/>
</clipPath>
<clipPath id="clip2_2685_1480">
<rect width="26.9231" height="32.0001" fill="white" transform="translate(21.5391 22)"/>
</clipPath>
</defs>
</svg>
